<!DOCTYPE svg PUBLIC "-//W3C//DTD SVG 1.1//EN" "http://www.w3.org/Graphics/SVG/1.1/DTD/svg11.dtd">
<!-- Uploaded to: SVG Repo, www.svgrepo.com, Transformed by: SVG Repo Mixer Tools -->
<svg fill="#495566" height="100px" width="100px" version="1.1" id="Layer_1" xmlns="http://www.w3.org/2000/svg" xmlns:xlink="http://www.w3.org/1999/xlink" viewBox="-76.8 -76.8 665.60 665.60" xml:space="preserve" transform="matrix(1, 0, 0, 1, 0, 0)">
<g id="SVGRepo_bgCarrier" stroke-width="0">
<rect x="-76.8" y="-76.8" width="665.60" height="665.60" rx="332.8" fill="#3eb43e" strokewidth="0"/>
</g>
<g id="SVGRepo_tracerCarrier" stroke-linecap="round" stroke-linejoin="round"/>
<g id="SVGRepo_iconCarrier"> <g> <g> <path d="M501.801,109.245H10.199C4.566,109.245,0,113.811,0,119.444v273.111c0,5.633,4.566,10.199,10.199,10.199h491.602 c5.633,0,10.199-4.566,10.199-10.199V119.444C512,113.811,507.434,109.245,501.801,109.245z M491.602,382.357H20.398V129.644 h471.203V382.357z"/> </g> </g> <g> <g> <path d="M446.725,185.427h-6.12c-5.633,0-10.199,4.566-10.199,10.199c0,5.633,4.567,10.199,10.199,10.199h6.12 c5.633,0,10.199-4.566,10.199-10.199C456.924,189.993,452.358,185.427,446.725,185.427z"/> </g> </g> <g> <g> <path d="M399.809,185.427H237.113c-5.633,0-10.199,4.566-10.199,10.199c0,5.633,4.566,10.199,10.199,10.199h162.696 c5.633,0,10.199-4.566,10.199-10.199C410.008,189.993,405.442,185.427,399.809,185.427z"/> </g> </g> <g> <g> <path d="M446.725,246.199H237.113c-5.633,0-10.199,4.566-10.199,10.199c0,5.633,4.566,10.199,10.199,10.199h209.612 c5.633,0,10.199-4.566,10.199-10.199C456.924,250.765,452.358,246.199,446.725,246.199z"/> </g> </g> <g> <g> <path d="M446.725,306.175H237.113c-5.633,0-10.199,4.566-10.199,10.199c0,5.633,4.566,10.199,10.199,10.199h209.612 c5.633,0,10.199-4.566,10.199-10.199C456.924,310.742,452.358,306.175,446.725,306.175z"/> </g> </g> <g> <g> <path d="M156.391,263.637c11.938-10.018,19.546-25.036,19.546-41.802c0-30.088-24.478-54.566-54.566-54.566 s-54.566,24.478-54.566,54.566c0,16.766,7.608,31.786,19.546,41.802c-19.75,10.069-33.315,30.592-33.315,54.239v16.658 c0,5.633,4.566,10.199,10.199,10.199h116.271c5.633,0,10.199-4.566,10.199-10.199v-16.658 C189.705,294.23,176.14,273.705,156.391,263.637z M121.371,187.666c18.84,0,34.167,15.327,34.167,34.167S140.211,256,121.371,256 s-34.167-15.327-34.167-34.167S102.531,187.666,121.371,187.666z M169.307,324.335H73.434v-6.459 c0-22.309,18.148-40.457,40.457-40.457h14.959c22.308,0,40.456,18.148,40.456,40.457V324.335z"/> </g> </g> </g>
</svg>